<?xml version="1.0" encoding="UTF-8" standalone="no"?>
<svg
   version="1.1"
   x="0px"
   y="0px"
   viewBox="0 0 96 96"
   style="enable-background:new 0 0 96 96;"
   xml:space="preserve"
   xmlns="http://www.w3.org/2000/svg"><path
     d="m 51,4.8 c 5.8,0 11,2.4 14.8,6.1 3.8,3.8 6.1,9 6.1,14.8 0,5.8 -2.3,11 -6.1,14.8 -1.7,1.7 -3.7,3.1 -6,4.2 2.7,0.7 11.709255,1.382623 16.7924,6.83267 8.93253,9.577281 22.60791,39.41416 -6.024424,38.824424 L 24.1,89.4 c -2.099555,-0.04324 -4,-0.8 -5.3,-2.2 -1.4,-1.3 -2.2,-3.2 -2.2,-5.3 v -4.1 c 0,-9.4 3.9,-18.1 10.1,-24.3 4.2,-4.2 9.5,-7.3 15.4,-8.9 -2.2,-1 -4.2,-2.5 -5.9,-4.2 -3.8,-3.8 -6.1,-9 -6.1,-14.8 0,-5.8 2.3,-11 6.1,-14.8 3.8,-3.7 9,-6 14.8,-6 z m 11.5,9.3 C 59.6,11.2 55.5,9.3 51,9.3 c -4.5,0 -8.6,1.8 -11.5,4.8 -2.9,2.9 -4.8,7 -4.8,11.5 0,4.5 1.8,8.6 4.8,11.5 2.9,2.9 7,4.8 11.5,4.8 4.5,0 8.6,-1.8 11.5,-4.8 2.9,-2.9 4.8,-7 4.8,-11.5 0,-4.4 -1.9,-8.5 -4.8,-11.5 z"
     id="path1" /><path
     d="m 48.84828,50.802679 v 17.755298 c 0,0.637622 -0.490478,1.128099 -1.1281,1.128099 -0.245239,0 -0.490477,-0.0981 -0.686669,-0.245238 l -13.73338,-8.87765 c -0.539526,-0.343334 -0.686669,-1.030003 -0.343334,-1.569529 0.09809,-0.147143 0.245239,-0.294287 0.392382,-0.343335 l 13.782428,-8.779553 c 0.490478,-0.343335 1.226195,-0.196192 1.520481,0.343334 0.147144,0.196191 0.196192,0.392382 0.196192,0.588574 z"
     id="path1-2"
     style="fill:#ffffff;stroke-width:0.490478" /><path
     id="rect2"
     style="fill:#ffffff;stroke-width:0.377953;stroke-linecap:round;stroke-linejoin:bevel"
     d="m 49.069442,61.798202 c 21.397789,-2.150994 31.83284,15.425374 -2.67986,28.001735 -0.93119,0.339321 10.641618,0.488611 11.587088,0.191419 37.26941,-11.714975 7.935865,-42.488426 -8.99669,-33.170047 -0.611219,0.336368 -0.896644,5.07602 0.08946,4.976893 z" /></svg>
